<svg width="94" height="44" viewBox="0 0 94 44" fill="none" xmlns="http://www.w3.org/2000/svg">
<rect x="0.392857" y="0.392857" width="92.3571" height="43.2143" rx="2.75" fill="white"/>
<rect x="0.392857" y="0.392857" width="92.3571" height="43.2143" rx="2.75" stroke="url(#paint0_linear_28_268)" stroke-width="0.785714"/>
<path d="M30.4052 19.9163C30.3516 19.4408 30.1306 19.0725 29.7423 18.8114C29.3539 18.5469 28.865 18.4146 28.2757 18.4146C27.8539 18.4146 27.4889 18.4816 27.1809 18.6155C26.8728 18.7461 26.6334 18.9269 26.4627 19.1579C26.2953 19.3856 26.2116 19.6451 26.2116 19.9364C26.2116 20.1808 26.2685 20.3917 26.3823 20.5692C26.4995 20.7467 26.6519 20.8956 26.8394 21.0162C27.0302 21.1334 27.2344 21.2321 27.4521 21.3125C27.6697 21.3895 27.879 21.4531 28.0799 21.5033L29.0843 21.7645C29.4125 21.8449 29.749 21.9537 30.0938 22.091C30.4387 22.2282 30.7584 22.409 31.0531 22.6334C31.3477 22.8577 31.5854 23.1356 31.7662 23.4671C31.9504 23.7985 32.0425 24.1953 32.0425 24.6574C32.0425 25.24 31.8918 25.7573 31.5905 26.2093C31.2925 26.6613 30.8589 27.0179 30.2897 27.279C29.7238 27.5402 29.0391 27.6708 28.2356 27.6708C27.4655 27.6708 26.7992 27.5485 26.2367 27.3041C25.6742 27.0597 25.2339 26.7132 24.9158 26.2645C24.5977 25.8125 24.4219 25.2768 24.3885 24.6574H25.9454C25.9755 25.029 26.096 25.3387 26.307 25.5865C26.5213 25.8309 26.7942 26.0134 27.1256 26.1339C27.4604 26.2511 27.8271 26.3097 28.2255 26.3097C28.6641 26.3097 29.0542 26.2411 29.3957 26.1038C29.7406 25.9632 30.0118 25.769 30.2093 25.5212C30.4069 25.2701 30.5056 24.9771 30.5056 24.6423C30.5056 24.3376 30.4186 24.0882 30.2445 23.894C30.0737 23.6998 29.841 23.5391 29.5464 23.4118C29.2551 23.2846 28.9253 23.1724 28.557 23.0753L27.3416 22.7439C26.5179 22.5195 25.865 22.1897 25.3829 21.7545C24.9041 21.3192 24.6647 20.7433 24.6647 20.0268C24.6647 19.4342 24.8254 18.9169 25.1468 18.4749C25.4683 18.0329 25.9035 17.6897 26.4526 17.4453C27.0017 17.1975 27.6212 17.0737 28.3109 17.0737C29.0073 17.0737 29.6217 17.1959 30.1541 17.4403C30.6898 17.6847 31.1117 18.0212 31.4197 18.4498C31.7277 18.875 31.8885 19.3638 31.9019 19.9163H30.4052ZM33.7764 27.5V19.7857H35.2781V27.5H33.7764ZM34.5348 18.5954C34.2736 18.5954 34.0493 18.5084 33.8618 18.3343C33.6777 18.1568 33.5856 17.9459 33.5856 17.7014C33.5856 17.4537 33.6777 17.2427 33.8618 17.0686C34.0493 16.8912 34.2736 16.8025 34.5348 16.8025C34.796 16.8025 35.0186 16.8912 35.2028 17.0686C35.3903 17.2427 35.484 17.4537 35.484 17.7014C35.484 17.9459 35.3903 18.1568 35.2028 18.3343C35.0186 18.5084 34.796 18.5954 34.5348 18.5954ZM40.5327 30.5536C39.92 30.5536 39.3926 30.4732 38.9507 30.3125C38.5121 30.1518 38.1538 29.9392 37.8759 29.6747C37.598 29.4102 37.3904 29.1205 37.2531 28.8058L38.5439 28.2734C38.6343 28.4208 38.7548 28.5765 38.9055 28.7405C39.0595 28.9079 39.2671 29.0502 39.5282 29.1674C39.7928 29.2846 40.1326 29.3432 40.5478 29.3432C41.117 29.3432 41.5874 29.2042 41.9591 28.9263C42.3307 28.6518 42.5165 28.2132 42.5165 27.6105V26.0937H42.4211C42.3307 26.2578 42.2001 26.4403 42.0294 26.6412C41.862 26.8421 41.6309 27.0162 41.3363 27.1635C41.0416 27.3108 40.6583 27.3845 40.1862 27.3845C39.5768 27.3845 39.0277 27.2422 38.5389 26.9576C38.0534 26.6696 37.6683 26.2461 37.3837 25.6869C37.1025 25.1244 36.9618 24.433 36.9618 23.6127C36.9618 22.7924 37.1008 22.0893 37.3787 21.5033C37.6599 20.9174 38.045 20.4687 38.5338 20.1574C39.0227 19.8426 39.5768 19.6853 40.1962 19.6853C40.675 19.6853 41.0617 19.7656 41.3564 19.9263C41.651 20.0837 41.8804 20.2679 42.0444 20.4788C42.2118 20.6897 42.3407 20.8756 42.4312 21.0363H42.5416V19.7857H44.0132V27.6708C44.0132 28.3337 43.8592 28.8778 43.5511 29.303C43.2431 29.7282 42.8262 30.043 42.3006 30.2472C41.7782 30.4515 41.189 30.5536 40.5327 30.5536ZM40.5176 26.139C40.9496 26.139 41.3145 26.0385 41.6125 25.8376C41.9139 25.6334 42.1415 25.3421 42.2955 24.9637C42.4529 24.582 42.5316 24.125 42.5316 23.5926C42.5316 23.0737 42.4546 22.6166 42.3006 22.2215C42.1466 21.8265 41.9205 21.5184 41.6226 21.2974C41.3246 21.0731 40.9563 20.9609 40.5176 20.9609C40.0656 20.9609 39.689 21.0781 39.3876 21.3125C39.0863 21.5435 38.8586 21.8583 38.7046 22.2567C38.5539 22.6551 38.4786 23.1004 38.4786 23.5926C38.4786 24.0982 38.5556 24.5419 38.7096 24.9235C38.8636 25.3052 39.0913 25.6032 39.3926 25.8175C39.6973 26.0318 40.0723 26.139 40.5176 26.139ZM47.5288 22.9196V27.5H46.0271V19.7857H47.4685V21.0413H47.564C47.7414 20.6328 48.0193 20.3047 48.3977 20.0569C48.7794 19.8092 49.2598 19.6853 49.8391 19.6853C50.3647 19.6853 50.8251 19.7958 51.2202 20.0167C51.6153 20.2344 51.9217 20.5592 52.1393 20.9911C52.3569 21.423 52.4658 21.957 52.4658 22.5932V27.5H50.9641V22.774C50.9641 22.2148 50.8184 21.7779 50.5271 21.4632C50.2358 21.1451 49.8357 20.986 49.3268 20.986C48.9786 20.986 48.6689 21.0614 48.3977 21.2121C48.1298 21.3627 47.9172 21.5837 47.7598 21.875C47.6058 22.1629 47.5288 22.5112 47.5288 22.9196ZM59.895 17.2143V27.5H58.3431V17.2143H59.895ZM63.5362 22.9196V27.5H62.0345V19.7857H63.4759V21.0413H63.5714C63.7488 20.6328 64.0267 20.3047 64.4051 20.0569C64.7868 19.8092 65.2672 19.6853 65.8465 19.6853C66.3721 19.6853 66.8325 19.7958 67.2276 20.0167C67.6227 20.2344 67.9291 20.5592 68.1467 20.9911C68.3643 21.423 68.4731 21.957 68.4731 22.5932V27.5H66.9715V22.774C66.9715 22.2148 66.8258 21.7779 66.5345 21.4632C66.2432 21.1451 65.8431 20.986 65.3342 20.986C64.986 20.986 64.6763 21.0614 64.4051 21.2121C64.1372 21.3627 63.9246 21.5837 63.7672 21.875C63.6132 22.1629 63.5362 22.5112 63.5362 22.9196Z" fill="url(#paint1_linear_28_268)"/>
<defs>
<linearGradient id="paint0_linear_28_268" x1="0" y1="0" x2="93" y2="44" gradientUnits="userSpaceOnUse">
<stop stop-color="#4A0BFF"/>
<stop offset="0.5" stop-color="#CC164D"/>
<stop offset="1" stop-color="#FF7121"/>
</linearGradient>
<linearGradient id="paint1_linear_28_268" x1="24" y1="13" x2="70" y2="30" gradientUnits="userSpaceOnUse">
<stop stop-color="#4A0BFF"/>
<stop offset="0.5" stop-color="#FF1C60"/>
<stop offset="1" stop-color="#FF7121"/>
</linearGradient>
</defs>
</svg>
