<svg width="173" height="64" viewBox="0 0 173 64" fill="none" xmlns="http://www.w3.org/2000/svg">
<path d="M57.2591 13.5467H63.2926L67.9088 41.8105H63.4545L62.6447 36.1981V36.2789H57.583L56.7732 41.8105H52.6429L57.2591 13.5467ZM62.1183 32.4431L60.1341 18.4726H60.0531L58.1094 32.4431H62.1183Z" fill="white"/>
<path d="M76.2671 42.2143C74.1345 42.2143 72.5013 41.6087 71.3674 40.3973C70.2606 39.186 69.7072 37.4767 69.7072 35.2695V20.0877C69.7072 17.8805 70.2606 16.1712 71.3674 14.9598C72.5013 13.7485 74.1345 13.1429 76.2671 13.1429C78.3997 13.1429 80.0195 13.7485 81.1263 14.9598C82.2601 16.1712 82.827 17.8805 82.827 20.0877V23.0756H78.6157V19.8051C78.6157 18.0554 77.8733 17.1806 76.3886 17.1806C74.9038 17.1806 74.1615 18.0554 74.1615 19.8051V35.5925C74.1615 37.3152 74.9038 38.1766 76.3886 38.1766C77.8733 38.1766 78.6157 37.3152 78.6157 35.5925V31.2721H82.827V35.2695C82.827 37.4767 82.2601 39.186 81.1263 40.3973C80.0195 41.6087 78.3997 42.2143 76.2671 42.2143Z" fill="white"/>
<path d="M85.4919 13.5467H91.8493L94.6839 33.7755H94.7648L97.5994 13.5467H103.957V41.8105H99.7455V20.4107H99.6645L96.4251 41.8105H92.6997L89.4603 20.4107H89.3793V41.8105H85.4919V13.5467Z" fill="white"/>
<path d="M107.281 13.5467H119.429V17.5844H111.735V25.0541H117.849V29.0918H111.735V37.7728H119.429V41.8105H107.281V13.5467Z" fill="white"/>
<path fill-rule="evenodd" clip-rule="evenodd" d="M55.9236 11.9752H64.6282L68.1359 33.4516V20.0877C68.1359 17.6257 68.7559 15.4884 70.2075 13.8998L70.2138 13.8928L70.2203 13.8859C71.7303 12.2727 73.831 11.5714 76.2672 11.5714C78.6977 11.5714 80.793 12.27 82.2799 13.8927C83.0395 14.7063 83.577 15.6652 83.9206 16.739V11.9752H93.216L94.7244 22.7402L96.2329 11.9752H105.528V43.3819H98.1741V40.7557L97.7766 43.3819H91.3483L90.9508 40.7557V43.3819H83.9206V38.6181C83.5771 39.6919 83.0395 40.6507 82.28 41.4644C80.793 43.0871 78.6978 43.7857 76.2672 43.7857C73.831 43.7857 71.7303 43.0844 70.2203 41.4712L70.2138 41.4643L70.2075 41.4573C69.8189 41.0321 69.4899 40.5675 69.2165 40.068L69.7578 43.3819H62.0937L61.2955 37.8503H58.9412L58.1314 43.3819H50.7941L55.9236 11.9752ZM57.5831 36.2789H62.6448V36.1981L63.4546 41.8105H67.9089L63.2926 13.5466H57.2592L52.643 41.8105H56.7733L57.5831 36.2789ZM83.9206 29.7007V24.647H77.0444V19.805C77.0444 19.1152 76.8926 18.8908 76.8608 18.8534C76.8504 18.8411 76.8361 18.8259 76.7885 18.8072C76.7314 18.7848 76.609 18.752 76.3887 18.752C76.1684 18.752 76.046 18.7848 75.9888 18.8072C75.9413 18.8259 75.9269 18.8411 75.9165 18.8534C75.8848 18.8908 75.733 19.1152 75.733 19.805V35.5924C75.733 36.2641 75.8827 36.4745 75.9087 36.5046C75.9172 36.5146 75.9311 36.5301 75.9812 36.5494C76.0407 36.5724 76.1658 36.6051 76.3887 36.6051C76.6115 36.6051 76.7367 36.5724 76.7962 36.5494C76.8462 36.5301 76.8601 36.5146 76.8687 36.5046C76.8946 36.4745 77.0444 36.2641 77.0444 35.5924V29.7007H83.9206ZM89.3793 20.4107H89.4603L92.6998 41.8105H96.4251L99.6646 20.4107H99.7456V41.8105H103.957V13.5466H97.5994L94.7649 33.7755H94.6839L91.8494 13.5466H85.492V41.8105H89.3793V20.4107ZM105.709 11.9752H121V19.1557H113.306V23.4826H119.421V30.6632H113.306V36.2014H121V43.3819H105.709V11.9752ZM111.735 37.7728V29.0917H117.849V25.0541H111.735V17.5843H119.429V13.5466H107.281V41.8105H119.429V37.7728H111.735ZM60.0532 18.4726H60.1342L62.1183 32.443H58.1095L60.0532 18.4726ZM60.1093 29.4729L59.9147 30.8716H60.308L60.1093 29.4729ZM71.3675 40.3973C72.5013 41.6086 74.1346 42.2143 76.2672 42.2143C78.3998 42.2143 80.0195 41.6086 81.1264 40.3973C82.2602 39.186 82.8271 37.4767 82.8271 35.2694V31.2721H78.6158V35.5924C78.6158 37.3152 77.8734 38.1766 76.3887 38.1766C74.9039 38.1766 74.1615 37.3152 74.1615 35.5924V19.805C74.1615 18.0554 74.9039 17.1805 76.3887 17.1805C77.8734 17.1805 78.6158 18.0554 78.6158 19.805V23.0756H82.8271V20.0877C82.8271 17.8804 82.2602 16.1711 81.1264 14.9598C80.0195 13.7485 78.3998 13.1428 76.2672 13.1428C74.1346 13.1428 72.5013 13.7485 71.3675 14.9598C70.2607 16.1711 69.7073 17.8804 69.7073 20.0877V35.2694C69.7073 37.4767 70.2607 39.186 71.3675 40.3973Z" fill="#3A4F39"/>
<path d="M50.7921 52.4424C50.7921 53.2343 51.0683 53.8466 51.6208 54.2793C52.1733 54.709 52.8746 54.9239 53.7247 54.9239C54.5626 54.9239 55.2056 54.7566 55.6537 54.422C56.1049 54.0844 56.3581 53.667 56.4133 53.1698L56.418 53.1146H55.2992L55.2946 53.1698C55.2731 53.3724 55.1396 53.5657 54.8941 53.7499C54.6486 53.934 54.2588 54.0261 53.7247 54.0261C53.1907 54.0261 52.7579 53.8926 52.4265 53.6256C52.095 53.3586 51.9293 52.9795 51.9293 52.4884V52.1017C51.9293 51.6383 52.095 51.2669 52.4265 50.9876C52.761 50.7052 53.1922 50.5641 53.7201 50.5641C54.2388 50.5641 54.6194 50.6561 54.8619 50.8403C55.1043 51.0214 55.2486 51.2132 55.2946 51.4158L55.2992 51.4756H56.418L56.4133 51.4204C56.3243 50.9262 56.0635 50.5103 55.6307 50.1727C55.1979 49.8351 54.5626 49.6663 53.7247 49.6663C52.8746 49.6663 52.1733 49.8812 51.6208 50.3109C51.0683 50.7405 50.7921 51.3528 50.7921 52.1478V52.4424Z" fill="#3A4F39"/>
<path d="M57.8963 52.4424C57.8963 53.2373 58.1725 53.8496 58.725 54.2793C59.2775 54.709 59.9895 54.9239 60.8612 54.9239C61.7297 54.9239 62.4403 54.709 62.9927 54.2793C63.5482 53.8496 63.826 53.2373 63.826 52.4424V52.1478C63.826 51.3528 63.5482 50.7405 62.9927 50.3109C62.4403 49.8812 61.7297 49.6663 60.8612 49.6663C59.9895 49.6663 59.2775 49.8812 58.725 50.3109C58.1725 50.7405 57.8963 51.3528 57.8963 52.1478V52.4424ZM59.0289 52.4838V52.1109C59.0289 51.6137 59.1946 51.2316 59.5261 50.9646C59.8606 50.6976 60.3056 50.5641 60.8612 50.5641C61.4136 50.5641 61.8571 50.6976 62.1917 50.9646C62.5262 51.2316 62.6935 51.6137 62.6935 52.1109V52.4838C62.6935 52.978 62.5262 53.3586 62.1917 53.6256C61.8571 53.8926 61.4136 54.0261 60.8612 54.0261C60.3056 54.0261 59.8606 53.8926 59.5261 53.6256C59.1946 53.3586 59.0289 52.978 59.0289 52.4838Z" fill="#3A4F39"/>
<path d="M65.7141 54.7857H66.8282V52.9857H68.0482C68.8125 52.9857 69.4033 52.8353 69.8207 52.5345C70.2412 52.2337 70.4514 51.8332 70.4514 51.3329C70.4514 50.8602 70.2412 50.4873 69.8207 50.2142C69.4033 49.941 68.8125 49.8044 68.0482 49.8044H65.7141V54.7857ZM66.8282 52.1155V50.6746H68.0344C68.5194 50.6746 68.857 50.7359 69.0473 50.8587C69.2406 50.9815 69.3373 51.1411 69.3373 51.3375C69.3373 51.5615 69.2406 51.7472 69.0473 51.8946C68.857 52.0419 68.5194 52.1155 68.0344 52.1155H66.8282ZM69.5261 54.7857H70.7783L69.1255 52.5207L67.8963 52.4884L69.5261 54.7857Z" fill="#3A4F39"/>
<path d="M72.3119 54.7857H73.426V53.0455H74.7059C75.4824 53.0455 76.0778 52.8951 76.4922 52.5943C76.9096 52.2936 77.1183 51.8869 77.1183 51.3743C77.1183 50.8863 76.9096 50.5027 76.4922 50.2234C76.0778 49.9441 75.4839 49.8044 74.7105 49.8044H72.3119V54.7857ZM73.426 52.1754V50.6746H74.6691C75.1663 50.6746 75.5131 50.739 75.7095 50.8679C75.909 50.9968 76.0088 51.1656 76.0088 51.3743C76.0088 51.6107 75.909 51.804 75.7095 51.9544C75.5131 52.1017 75.1663 52.1754 74.6691 52.1754H73.426Z" fill="#3A4F39"/>
<path d="M78.4723 52.4424C78.4723 53.2373 78.7486 53.8496 79.301 54.2793C79.8535 54.709 80.5655 54.9239 81.4372 54.9239C82.3058 54.9239 83.0163 54.709 83.5687 54.2793C84.1243 53.8496 84.402 53.2373 84.402 52.4424V52.1478C84.402 51.3528 84.1243 50.7405 83.5687 50.3109C83.0163 49.8812 82.3058 49.6663 81.4372 49.6663C80.5655 49.6663 79.8535 49.8812 79.301 50.3109C78.7486 50.7405 78.4723 51.3528 78.4723 52.1478V52.4424ZM79.6049 52.4838V52.1109C79.6049 51.6137 79.7706 51.2316 80.1021 50.9646C80.4366 50.6976 80.8817 50.5641 81.4372 50.5641C81.9896 50.5641 82.4331 50.6976 82.7677 50.9646C83.1022 51.2316 83.2695 51.6137 83.2695 52.1109V52.4838C83.2695 52.978 83.1022 53.3586 82.7677 53.6256C82.4331 53.8926 81.9896 54.0261 81.4372 54.0261C80.8817 54.0261 80.4366 53.8926 80.1021 53.6256C79.7706 53.3586 79.6049 52.978 79.6049 52.4838Z" fill="#3A4F39"/>
<path d="M86.2901 54.7857H87.4043V52.9857H88.6243C89.3885 52.9857 89.9793 52.8353 90.3967 52.5345C90.8172 52.2337 91.0274 51.8332 91.0274 51.3329C91.0274 50.8602 90.8172 50.4873 90.3967 50.2142C89.9793 49.941 89.3885 49.8044 88.6243 49.8044H86.2901V54.7857ZM87.4043 52.1155V50.6746H88.6104C89.0954 50.6746 89.433 50.7359 89.6233 50.8587C89.8166 50.9815 89.9133 51.1411 89.9133 51.3375C89.9133 51.5615 89.8166 51.7472 89.6233 51.8946C89.433 52.0419 89.0954 52.1155 88.6104 52.1155H87.4043ZM90.1021 54.7857H91.3543L89.7015 52.5207L88.4723 52.4884L90.1021 54.7857Z" fill="#3A4F39"/>
<path d="M92.0869 54.7857H93.1365L94.932 51.1672C94.9688 51.0874 95.0026 51.0106 95.0333 50.937C95.0671 50.8633 95.0962 50.7881 95.1208 50.7114H95.1668C95.1944 50.7881 95.2236 50.8633 95.2543 50.937C95.285 51.0106 95.3203 51.0874 95.3602 51.1672L97.1464 54.7857H98.3066L95.7469 49.7814H94.6374L92.0869 54.7857ZM93.224 53.7407H97.1142L96.7183 52.8752L93.6199 52.8706L93.224 53.7407Z" fill="#3A4F39"/>
<path d="M98.3946 50.6792H100.526V54.7857H101.64V50.6792H103.776V49.8044H98.3946V50.6792Z" fill="#3A4F39"/>
<path d="M105.269 54.7857H106.378V49.8044H105.269V54.7857Z" fill="#3A4F39"/>
<path d="M108.275 52.4424C108.275 53.2373 108.552 53.8496 109.104 54.2793C109.657 54.709 110.369 54.9239 111.24 54.9239C112.109 54.9239 112.819 54.709 113.372 54.2793C113.927 53.8496 114.205 53.2373 114.205 52.4424V52.1478C114.205 51.3528 113.927 50.7405 113.372 50.3109C112.819 49.8812 112.109 49.6663 111.24 49.6663C110.369 49.6663 109.657 49.8812 109.104 50.3109C108.552 50.7405 108.275 51.3528 108.275 52.1478V52.4424ZM109.408 52.4838V52.1109C109.408 51.6137 109.574 51.2316 109.905 50.9646C110.24 50.6976 110.685 50.5641 111.24 50.5641C111.793 50.5641 112.236 50.6976 112.571 50.9646C112.905 51.2316 113.073 51.6137 113.073 52.1109V52.4838C113.073 52.978 112.905 53.3586 112.571 53.6256C112.236 53.8926 111.793 54.0261 111.24 54.0261C110.685 54.0261 110.24 53.8926 109.905 53.6256C109.574 53.3586 109.408 52.978 109.408 52.4838Z" fill="#3A4F39"/>
<path d="M116.093 54.7857H117.111V51.6598C117.111 51.5892 117.106 51.5124 117.097 51.4296C117.088 51.3467 117.077 51.27 117.065 51.1994H117.115C117.152 51.2608 117.194 51.3252 117.24 51.3927C117.289 51.4603 117.342 51.5278 117.401 51.5953L120.232 54.7857H121.429V49.8044H120.412V52.9166C120.412 52.9903 120.415 53.0747 120.421 53.1698C120.43 53.2619 120.442 53.3448 120.458 53.4184H120.412C120.369 53.354 120.323 53.2849 120.274 53.2112C120.224 53.1376 120.171 53.067 120.112 52.9995L117.281 49.8044H116.093V54.7857Z" fill="#3A4F39"/>
</svg>
